<mxfile host="app.diagrams.net" agent="Mozilla/5.0 (Windows NT 10.0; Win64; x64) AppleWebKit/537.36 (KHTML, like Gecko) Chrome/131.0.0.0 Safari/537.36" version="24.9.0">
  <diagram name="Recurrent Neural Network (RNN)" id="LHz0P33K-LMMh44sAPcR">
    <mxGraphModel dx="1434" dy="738" grid="1" gridSize="10" guides="1" tooltips="1" connect="1" arrows="1" fold="1" page="1" pageScale="1" pageWidth="850" pageHeight="1100" math="0" shadow="0">
      <root>
        <mxCell id="Lu3lADUNCScUDSHZM6QB-0" />
        <mxCell id="Lu3lADUNCScUDSHZM6QB-1" parent="Lu3lADUNCScUDSHZM6QB-0" />
        <mxCell id="SHPWQL9Js9zqcqUEqA2E-23" value="" style="group;fillColor=#dae8fc;strokeColor=#6c8ebf;" parent="Lu3lADUNCScUDSHZM6QB-1" vertex="1" connectable="0">
          <mxGeometry x="140" y="230" width="320" height="320" as="geometry" />
        </mxCell>
        <mxCell id="Yk8ms6qGuwUDCU6Bnd6E-1" value="" style="rounded=0;whiteSpace=wrap;html=1;fillColor=#ffe6cc;strokeColor=#d79b00;" vertex="1" parent="SHPWQL9Js9zqcqUEqA2E-23">
          <mxGeometry x="-30" y="-70" width="350" height="390" as="geometry" />
        </mxCell>
        <mxCell id="Lu3lADUNCScUDSHZM6QB-6" value="" style="ellipse;whiteSpace=wrap;html=1;aspect=fixed;strokeColor=#d6b656;fillColor=#fff2cc;" parent="SHPWQL9Js9zqcqUEqA2E-23" vertex="1">
          <mxGeometry y="36.20689655172414" width="39.195979899497495" height="39.195979899497495" as="geometry" />
        </mxCell>
        <mxCell id="Lu3lADUNCScUDSHZM6QB-7" value="" style="ellipse;whiteSpace=wrap;html=1;aspect=fixed;strokeColor=#d6b656;fillColor=#fff2cc;" parent="SHPWQL9Js9zqcqUEqA2E-23" vertex="1">
          <mxGeometry y="134.48275862068965" width="39.195979899497495" height="39.195979899497495" as="geometry" />
        </mxCell>
        <mxCell id="Lu3lADUNCScUDSHZM6QB-8" value="" style="ellipse;whiteSpace=wrap;html=1;aspect=fixed;strokeColor=#d6b656;fillColor=#fff2cc;" parent="SHPWQL9Js9zqcqUEqA2E-23" vertex="1">
          <mxGeometry y="231.03448275862067" width="39.195979899497495" height="39.195979899497495" as="geometry" />
        </mxCell>
        <mxCell id="Lu3lADUNCScUDSHZM6QB-11" value="" style="ellipse;whiteSpace=wrap;html=1;aspect=fixed;strokeColor=#6c8ebf;fillColor=#dae8fc;" parent="SHPWQL9Js9zqcqUEqA2E-23" vertex="1">
          <mxGeometry x="75.13636363636364" y="36.20689655172414" width="39.195979899497495" height="39.195979899497495" as="geometry" />
        </mxCell>
        <mxCell id="Lu3lADUNCScUDSHZM6QB-12" value="" style="ellipse;whiteSpace=wrap;html=1;aspect=fixed;strokeColor=#6c8ebf;fillColor=#dae8fc;" parent="SHPWQL9Js9zqcqUEqA2E-23" vertex="1">
          <mxGeometry x="75.13636363636364" y="134.48275862068965" width="39.195979899497495" height="39.195979899497495" as="geometry" />
        </mxCell>
        <mxCell id="Lu3lADUNCScUDSHZM6QB-13" value="" style="ellipse;whiteSpace=wrap;html=1;aspect=fixed;strokeColor=#6c8ebf;fillColor=#dae8fc;" parent="SHPWQL9Js9zqcqUEqA2E-23" vertex="1">
          <mxGeometry x="75.13636363636364" y="231.03448275862067" width="39.195979899497495" height="39.195979899497495" as="geometry" />
        </mxCell>
        <mxCell id="Lu3lADUNCScUDSHZM6QB-15" value="" style="ellipse;whiteSpace=wrap;html=1;aspect=fixed;strokeColor=#6c8ebf;fillColor=#dae8fc;" parent="SHPWQL9Js9zqcqUEqA2E-23" vertex="1">
          <mxGeometry x="158.18181818181816" y="34.48275862068966" width="39.195979899497495" height="39.195979899497495" as="geometry" />
        </mxCell>
        <mxCell id="Lu3lADUNCScUDSHZM6QB-16" value="" style="ellipse;whiteSpace=wrap;html=1;aspect=fixed;strokeColor=#6c8ebf;fillColor=#dae8fc;" parent="SHPWQL9Js9zqcqUEqA2E-23" vertex="1">
          <mxGeometry x="158.18181818181816" y="132.75862068965515" width="39.195979899497495" height="39.195979899497495" as="geometry" />
        </mxCell>
        <mxCell id="Lu3lADUNCScUDSHZM6QB-17" value="" style="ellipse;whiteSpace=wrap;html=1;aspect=fixed;strokeColor=#6c8ebf;fillColor=#dae8fc;" parent="SHPWQL9Js9zqcqUEqA2E-23" vertex="1">
          <mxGeometry x="158.18181818181816" y="231.03448275862067" width="39.195979899497495" height="39.195979899497495" as="geometry" />
        </mxCell>
        <mxCell id="Lu3lADUNCScUDSHZM6QB-19" value="" style="ellipse;whiteSpace=wrap;html=1;aspect=fixed;strokeColor=#b85450;fillColor=#f8cecc;" parent="SHPWQL9Js9zqcqUEqA2E-23" vertex="1">
          <mxGeometry x="237.27272727272722" y="36.20689655172414" width="39.195979899497495" height="39.195979899497495" as="geometry" />
        </mxCell>
        <mxCell id="Lu3lADUNCScUDSHZM6QB-20" value="" style="ellipse;whiteSpace=wrap;html=1;aspect=fixed;strokeColor=#b85450;fillColor=#f8cecc;" parent="SHPWQL9Js9zqcqUEqA2E-23" vertex="1">
          <mxGeometry x="237.27272727272722" y="132.75862068965515" width="39.195979899497495" height="39.195979899497495" as="geometry" />
        </mxCell>
        <mxCell id="Lu3lADUNCScUDSHZM6QB-21" value="" style="ellipse;whiteSpace=wrap;html=1;aspect=fixed;strokeColor=#b85450;fillColor=#f8cecc;" parent="SHPWQL9Js9zqcqUEqA2E-23" vertex="1">
          <mxGeometry x="237.27272727272722" y="231.03448275862067" width="39.195979899497495" height="39.195979899497495" as="geometry" />
        </mxCell>
        <mxCell id="Lu3lADUNCScUDSHZM6QB-57" value="" style="endArrow=none;html=1;rounded=0;exitX=1;exitY=0.5;exitDx=0;exitDy=0;entryX=0;entryY=0.5;entryDx=0;entryDy=0;" parent="SHPWQL9Js9zqcqUEqA2E-23" source="Lu3lADUNCScUDSHZM6QB-7" target="Lu3lADUNCScUDSHZM6QB-12" edge="1">
          <mxGeometry width="50" height="50" relative="1" as="geometry">
            <mxPoint x="278.1363636363636" y="215.5172413793103" as="sourcePoint" />
            <mxPoint x="67.22727272727273" y="198.27586206896552" as="targetPoint" />
          </mxGeometry>
        </mxCell>
        <mxCell id="Lu3lADUNCScUDSHZM6QB-58" value="" style="endArrow=none;html=1;rounded=0;exitX=1;exitY=0.5;exitDx=0;exitDy=0;entryX=0;entryY=0.5;entryDx=0;entryDy=0;" parent="SHPWQL9Js9zqcqUEqA2E-23" source="Lu3lADUNCScUDSHZM6QB-8" target="Lu3lADUNCScUDSHZM6QB-13" edge="1">
          <mxGeometry width="50" height="50" relative="1" as="geometry">
            <mxPoint x="278.1363636363636" y="215.5172413793103" as="sourcePoint" />
            <mxPoint x="344.04545454545456" y="129.3103448275862" as="targetPoint" />
          </mxGeometry>
        </mxCell>
        <mxCell id="Lu3lADUNCScUDSHZM6QB-61" value="" style="endArrow=none;html=1;rounded=0;exitX=1;exitY=1;exitDx=0;exitDy=0;entryX=0;entryY=0;entryDx=0;entryDy=0;" parent="SHPWQL9Js9zqcqUEqA2E-23" source="Lu3lADUNCScUDSHZM6QB-6" target="Lu3lADUNCScUDSHZM6QB-12" edge="1">
          <mxGeometry width="50" height="50" relative="1" as="geometry">
            <mxPoint x="278.1363636363636" y="181.0344827586207" as="sourcePoint" />
            <mxPoint x="344.04545454545456" y="94.82758620689654" as="targetPoint" />
          </mxGeometry>
        </mxCell>
        <mxCell id="Lu3lADUNCScUDSHZM6QB-62" value="" style="endArrow=none;html=1;rounded=0;exitX=1;exitY=1;exitDx=0;exitDy=0;entryX=0;entryY=0;entryDx=0;entryDy=0;" parent="SHPWQL9Js9zqcqUEqA2E-23" source="Lu3lADUNCScUDSHZM6QB-7" target="Lu3lADUNCScUDSHZM6QB-13" edge="1">
          <mxGeometry width="50" height="50" relative="1" as="geometry">
            <mxPoint x="278.1363636363636" y="181.0344827586207" as="sourcePoint" />
            <mxPoint x="344.04545454545456" y="94.82758620689654" as="targetPoint" />
          </mxGeometry>
        </mxCell>
        <mxCell id="Lu3lADUNCScUDSHZM6QB-65" value="" style="endArrow=none;html=1;rounded=0;exitX=1;exitY=0;exitDx=0;exitDy=0;entryX=0;entryY=1;entryDx=0;entryDy=0;" parent="SHPWQL9Js9zqcqUEqA2E-23" source="Lu3lADUNCScUDSHZM6QB-7" target="Lu3lADUNCScUDSHZM6QB-11" edge="1">
          <mxGeometry width="50" height="50" relative="1" as="geometry">
            <mxPoint x="71.36917877673639" y="-15.762302799536315" as="sourcePoint" />
            <mxPoint x="109.22173031417269" y="-65.27217995908437" as="targetPoint" />
          </mxGeometry>
        </mxCell>
        <mxCell id="Lu3lADUNCScUDSHZM6QB-66" value="" style="endArrow=none;html=1;rounded=0;exitX=1;exitY=0;exitDx=0;exitDy=0;entryX=0;entryY=1;entryDx=0;entryDy=0;" parent="SHPWQL9Js9zqcqUEqA2E-23" source="Lu3lADUNCScUDSHZM6QB-8" target="Lu3lADUNCScUDSHZM6QB-12" edge="1">
          <mxGeometry width="50" height="50" relative="1" as="geometry">
            <mxPoint x="84.55099695855458" y="1.479076510808509" as="sourcePoint" />
            <mxPoint x="122.40354849599083" y="-48.03080064873954" as="targetPoint" />
          </mxGeometry>
        </mxCell>
        <mxCell id="Lu3lADUNCScUDSHZM6QB-97" value="" style="endArrow=none;html=1;rounded=0;entryX=0;entryY=0.5;entryDx=0;entryDy=0;exitX=1;exitY=1;exitDx=0;exitDy=0;" parent="SHPWQL9Js9zqcqUEqA2E-23" source="Lu3lADUNCScUDSHZM6QB-15" target="Lu3lADUNCScUDSHZM6QB-20" edge="1">
          <mxGeometry width="50" height="50" relative="1" as="geometry">
            <mxPoint x="232" y="24.137931034482754" as="sourcePoint" />
            <mxPoint x="271.3580939505366" y="177.34114547632612" as="targetPoint" />
          </mxGeometry>
        </mxCell>
        <mxCell id="Lu3lADUNCScUDSHZM6QB-98" value="" style="endArrow=none;html=1;rounded=0;entryX=0;entryY=0;entryDx=0;entryDy=0;exitX=1;exitY=1;exitDx=0;exitDy=0;" parent="SHPWQL9Js9zqcqUEqA2E-23" source="Lu3lADUNCScUDSHZM6QB-15" target="Lu3lADUNCScUDSHZM6QB-21" edge="1">
          <mxGeometry width="50" height="50" relative="1" as="geometry">
            <mxPoint x="216.36917877673608" y="110.58988900643249" as="sourcePoint" />
            <mxPoint x="250.45454545454544" y="184.48275862068965" as="targetPoint" />
          </mxGeometry>
        </mxCell>
        <mxCell id="Lu3lADUNCScUDSHZM6QB-100" value="" style="endArrow=none;html=1;rounded=0;entryX=0;entryY=0.5;entryDx=0;entryDy=0;exitX=1;exitY=0.5;exitDx=0;exitDy=0;" parent="SHPWQL9Js9zqcqUEqA2E-23" source="Lu3lADUNCScUDSHZM6QB-16" target="Lu3lADUNCScUDSHZM6QB-20" edge="1">
          <mxGeometry width="50" height="50" relative="1" as="geometry">
            <mxPoint x="224.09090909090907" y="86.20689655172414" as="sourcePoint" />
            <mxPoint x="250.45454545454544" y="87.93103448275862" as="targetPoint" />
          </mxGeometry>
        </mxCell>
        <mxCell id="Lu3lADUNCScUDSHZM6QB-101" value="" style="endArrow=none;html=1;rounded=0;entryX=0;entryY=0;entryDx=0;entryDy=0;exitX=1;exitY=1;exitDx=0;exitDy=0;" parent="SHPWQL9Js9zqcqUEqA2E-23" source="Lu3lADUNCScUDSHZM6QB-16" target="Lu3lADUNCScUDSHZM6QB-21" edge="1">
          <mxGeometry width="50" height="50" relative="1" as="geometry">
            <mxPoint x="224.09090909090907" y="184.48275862068965" as="sourcePoint" />
            <mxPoint x="250.45454545454544" y="184.48275862068965" as="targetPoint" />
          </mxGeometry>
        </mxCell>
        <mxCell id="Lu3lADUNCScUDSHZM6QB-102" value="" style="endArrow=none;html=1;rounded=0;exitX=1;exitY=0.5;exitDx=0;exitDy=0;entryX=0;entryY=0.5;entryDx=0;entryDy=0;" parent="SHPWQL9Js9zqcqUEqA2E-23" source="Lu3lADUNCScUDSHZM6QB-17" target="Lu3lADUNCScUDSHZM6QB-21" edge="1">
          <mxGeometry width="50" height="50" relative="1" as="geometry">
            <mxPoint x="216.36917877673608" y="208.86575107539798" as="sourcePoint" />
            <mxPoint x="232" y="299.99999999999994" as="targetPoint" />
          </mxGeometry>
        </mxCell>
        <mxCell id="Lu3lADUNCScUDSHZM6QB-103" value="" style="endArrow=none;html=1;rounded=0;exitX=1;exitY=0;exitDx=0;exitDy=0;entryX=0;entryY=1;entryDx=0;entryDy=0;" parent="SHPWQL9Js9zqcqUEqA2E-23" source="Lu3lADUNCScUDSHZM6QB-17" target="Lu3lADUNCScUDSHZM6QB-20" edge="1">
          <mxGeometry width="50" height="50" relative="1" as="geometry">
            <mxPoint x="224.09090909090907" y="282.7586206896552" as="sourcePoint" />
            <mxPoint x="250.45454545454544" y="282.7586206896552" as="targetPoint" />
          </mxGeometry>
        </mxCell>
        <mxCell id="Lu3lADUNCScUDSHZM6QB-104" value="" style="endArrow=none;html=1;rounded=0;exitX=1;exitY=0;exitDx=0;exitDy=0;entryX=0;entryY=1;entryDx=0;entryDy=0;" parent="SHPWQL9Js9zqcqUEqA2E-23" source="Lu3lADUNCScUDSHZM6QB-17" target="Lu3lADUNCScUDSHZM6QB-19" edge="1">
          <mxGeometry width="50" height="50" relative="1" as="geometry">
            <mxPoint x="216.36917877673608" y="258.37562823494676" as="sourcePoint" />
            <mxPoint x="258.17627576871837" y="208.86575107539798" as="targetPoint" />
          </mxGeometry>
        </mxCell>
        <mxCell id="Lu3lADUNCScUDSHZM6QB-106" value="" style="endArrow=none;html=1;rounded=0;exitX=1;exitY=0;exitDx=0;exitDy=0;entryX=0;entryY=1;entryDx=0;entryDy=0;" parent="SHPWQL9Js9zqcqUEqA2E-23" source="Lu3lADUNCScUDSHZM6QB-16" target="Lu3lADUNCScUDSHZM6QB-19" edge="1">
          <mxGeometry width="50" height="50" relative="1" as="geometry">
            <mxPoint x="216.36917877673608" y="258.37562823494676" as="sourcePoint" />
            <mxPoint x="258.17627576871837" y="14.038164868501442" as="targetPoint" />
          </mxGeometry>
        </mxCell>
        <mxCell id="SHPWQL9Js9zqcqUEqA2E-1" value="" style="endArrow=none;html=1;rounded=0;exitX=1;exitY=0.5;exitDx=0;exitDy=0;entryX=0;entryY=0.5;entryDx=0;entryDy=0;" parent="SHPWQL9Js9zqcqUEqA2E-23" source="Lu3lADUNCScUDSHZM6QB-6" target="Lu3lADUNCScUDSHZM6QB-11" edge="1">
          <mxGeometry width="50" height="50" relative="1" as="geometry">
            <mxPoint x="58.18736059491822" y="112.31402693746733" as="sourcePoint" />
            <mxPoint x="96.0399121323545" y="161.82390409701537" as="targetPoint" />
          </mxGeometry>
        </mxCell>
        <mxCell id="SHPWQL9Js9zqcqUEqA2E-2" value="" style="endArrow=none;html=1;rounded=0;exitX=1;exitY=1;exitDx=0;exitDy=0;entryX=0;entryY=0;entryDx=0;entryDy=0;" parent="SHPWQL9Js9zqcqUEqA2E-23" source="Lu3lADUNCScUDSHZM6QB-6" target="Lu3lADUNCScUDSHZM6QB-13" edge="1">
          <mxGeometry width="50" height="50" relative="1" as="geometry">
            <mxPoint x="65.9090909090909" y="87.93103448275862" as="sourcePoint" />
            <mxPoint x="88.31818181818181" y="87.93103448275862" as="targetPoint" />
          </mxGeometry>
        </mxCell>
        <mxCell id="SHPWQL9Js9zqcqUEqA2E-3" value="" style="endArrow=none;html=1;rounded=0;exitX=1;exitY=0;exitDx=0;exitDy=0;entryX=0;entryY=1;entryDx=0;entryDy=0;" parent="SHPWQL9Js9zqcqUEqA2E-23" source="Lu3lADUNCScUDSHZM6QB-8" target="Lu3lADUNCScUDSHZM6QB-11" edge="1">
          <mxGeometry width="50" height="50" relative="1" as="geometry">
            <mxPoint x="58.18736059491822" y="112.31402693746733" as="sourcePoint" />
            <mxPoint x="96.0399121323545" y="258.3756282349465" as="targetPoint" />
          </mxGeometry>
        </mxCell>
        <mxCell id="SHPWQL9Js9zqcqUEqA2E-4" value="" style="endArrow=none;html=1;rounded=0;exitX=1;exitY=0.5;exitDx=0;exitDy=0;entryX=0;entryY=0.5;entryDx=0;entryDy=0;" parent="SHPWQL9Js9zqcqUEqA2E-23" source="Lu3lADUNCScUDSHZM6QB-15" target="Lu3lADUNCScUDSHZM6QB-19" edge="1">
          <mxGeometry width="50" height="50" relative="1" as="geometry">
            <mxPoint x="65.9090909090909" y="87.93103448275862" as="sourcePoint" />
            <mxPoint x="88.31818181818181" y="87.93103448275862" as="targetPoint" />
          </mxGeometry>
        </mxCell>
        <mxCell id="SHPWQL9Js9zqcqUEqA2E-5" value="" style="endArrow=none;html=1;rounded=0;exitX=1;exitY=0.5;exitDx=0;exitDy=0;entryX=0;entryY=0.5;entryDx=0;entryDy=0;" parent="SHPWQL9Js9zqcqUEqA2E-23" source="Lu3lADUNCScUDSHZM6QB-11" target="Lu3lADUNCScUDSHZM6QB-15" edge="1">
          <mxGeometry width="50" height="50" relative="1" as="geometry">
            <mxPoint x="224.09090909090907" y="86.20689655172414" as="sourcePoint" />
            <mxPoint x="118.63636363636361" y="-10.344827586206897" as="targetPoint" />
          </mxGeometry>
        </mxCell>
        <mxCell id="SHPWQL9Js9zqcqUEqA2E-6" value="" style="endArrow=none;html=1;rounded=0;exitX=1;exitY=1;exitDx=0;exitDy=0;entryX=0;entryY=0;entryDx=0;entryDy=0;" parent="SHPWQL9Js9zqcqUEqA2E-23" source="Lu3lADUNCScUDSHZM6QB-11" target="Lu3lADUNCScUDSHZM6QB-16" edge="1">
          <mxGeometry width="50" height="50" relative="1" as="geometry">
            <mxPoint x="141.04545454545453" y="87.93103448275862" as="sourcePoint" />
            <mxPoint x="171.36363636363635" y="86.20689655172414" as="targetPoint" />
          </mxGeometry>
        </mxCell>
        <mxCell id="SHPWQL9Js9zqcqUEqA2E-7" value="" style="endArrow=none;html=1;rounded=0;exitX=1;exitY=1;exitDx=0;exitDy=0;entryX=0;entryY=0;entryDx=0;entryDy=0;" parent="SHPWQL9Js9zqcqUEqA2E-23" source="Lu3lADUNCScUDSHZM6QB-11" target="Lu3lADUNCScUDSHZM6QB-17" edge="1">
          <mxGeometry width="50" height="50" relative="1" as="geometry">
            <mxPoint x="133.3237242312819" y="112.31402693746733" as="sourcePoint" />
            <mxPoint x="179.08536667780905" y="160.09976616598092" as="targetPoint" />
          </mxGeometry>
        </mxCell>
        <mxCell id="SHPWQL9Js9zqcqUEqA2E-8" value="" style="endArrow=none;html=1;rounded=0;exitX=1;exitY=0.5;exitDx=0;exitDy=0;entryX=0;entryY=0.5;entryDx=0;entryDy=0;" parent="SHPWQL9Js9zqcqUEqA2E-23" source="Lu3lADUNCScUDSHZM6QB-12" target="Lu3lADUNCScUDSHZM6QB-16" edge="1">
          <mxGeometry width="50" height="50" relative="1" as="geometry">
            <mxPoint x="133.3237242312819" y="112.31402693746733" as="sourcePoint" />
            <mxPoint x="179.08536667780905" y="258.3756282349465" as="targetPoint" />
          </mxGeometry>
        </mxCell>
        <mxCell id="SHPWQL9Js9zqcqUEqA2E-9" value="" style="endArrow=none;html=1;rounded=0;exitX=1;exitY=1;exitDx=0;exitDy=0;entryX=0;entryY=0;entryDx=0;entryDy=0;" parent="SHPWQL9Js9zqcqUEqA2E-23" source="Lu3lADUNCScUDSHZM6QB-12" target="Lu3lADUNCScUDSHZM6QB-17" edge="1">
          <mxGeometry width="50" height="50" relative="1" as="geometry">
            <mxPoint x="141.04545454545453" y="186.2068965517241" as="sourcePoint" />
            <mxPoint x="171.36363636363635" y="184.48275862068965" as="targetPoint" />
          </mxGeometry>
        </mxCell>
        <mxCell id="SHPWQL9Js9zqcqUEqA2E-10" value="" style="endArrow=none;html=1;rounded=0;exitX=1;exitY=0.5;exitDx=0;exitDy=0;entryX=0;entryY=0.5;entryDx=0;entryDy=0;" parent="SHPWQL9Js9zqcqUEqA2E-23" source="Lu3lADUNCScUDSHZM6QB-13" target="Lu3lADUNCScUDSHZM6QB-17" edge="1">
          <mxGeometry width="50" height="50" relative="1" as="geometry">
            <mxPoint x="133.3237242312819" y="210.58988900643286" as="sourcePoint" />
            <mxPoint x="179.08536667780905" y="258.3756282349465" as="targetPoint" />
          </mxGeometry>
        </mxCell>
        <mxCell id="SHPWQL9Js9zqcqUEqA2E-11" value="" style="endArrow=none;html=1;rounded=0;exitX=1;exitY=0;exitDx=0;exitDy=0;entryX=0;entryY=1;entryDx=0;entryDy=0;" parent="SHPWQL9Js9zqcqUEqA2E-23" source="Lu3lADUNCScUDSHZM6QB-13" target="Lu3lADUNCScUDSHZM6QB-16" edge="1">
          <mxGeometry width="50" height="50" relative="1" as="geometry">
            <mxPoint x="141.04545454545453" y="282.7586206896552" as="sourcePoint" />
            <mxPoint x="171.36363636363635" y="282.7586206896552" as="targetPoint" />
          </mxGeometry>
        </mxCell>
        <mxCell id="SHPWQL9Js9zqcqUEqA2E-12" value="" style="endArrow=none;html=1;rounded=0;exitX=1;exitY=0;exitDx=0;exitDy=0;entryX=0;entryY=1;entryDx=0;entryDy=0;" parent="SHPWQL9Js9zqcqUEqA2E-23" source="Lu3lADUNCScUDSHZM6QB-13" target="Lu3lADUNCScUDSHZM6QB-15" edge="1">
          <mxGeometry width="50" height="50" relative="1" as="geometry">
            <mxPoint x="133.3237242312819" y="258.3756282349465" as="sourcePoint" />
            <mxPoint x="179.08536667780905" y="208.86575107539838" as="targetPoint" />
          </mxGeometry>
        </mxCell>
        <mxCell id="SHPWQL9Js9zqcqUEqA2E-13" value="" style="endArrow=none;html=1;rounded=0;exitX=1;exitY=0;exitDx=0;exitDy=0;entryX=0;entryY=1;entryDx=0;entryDy=0;" parent="SHPWQL9Js9zqcqUEqA2E-23" source="Lu3lADUNCScUDSHZM6QB-12" target="Lu3lADUNCScUDSHZM6QB-15" edge="1">
          <mxGeometry width="50" height="50" relative="1" as="geometry">
            <mxPoint x="133.3237242312819" y="258.3756282349465" as="sourcePoint" />
            <mxPoint x="179.08536667780905" y="110.58988900643288" as="targetPoint" />
          </mxGeometry>
        </mxCell>
        <mxCell id="SHPWQL9Js9zqcqUEqA2E-16" value="" style="endArrow=none;html=1;rounded=0;fontSize=12;curved=1;entryX=1;entryY=0;entryDx=0;entryDy=0;exitX=0;exitY=0;exitDx=0;exitDy=0;" parent="SHPWQL9Js9zqcqUEqA2E-23" source="Lu3lADUNCScUDSHZM6QB-15" target="Lu3lADUNCScUDSHZM6QB-15" edge="1">
          <mxGeometry width="50" height="50" relative="1" as="geometry">
            <mxPoint x="63.27272727272726" y="86.20689655172414" as="sourcePoint" />
            <mxPoint x="129.18181818181816" as="targetPoint" />
            <Array as="points">
              <mxPoint x="166.09090909090907" />
              <mxPoint x="195.09090909090907" />
            </Array>
          </mxGeometry>
        </mxCell>
        <mxCell id="SHPWQL9Js9zqcqUEqA2E-17" value="" style="endArrow=none;html=1;rounded=0;fontSize=12;curved=1;entryX=1;entryY=0;entryDx=0;entryDy=0;exitX=0;exitY=0;exitDx=0;exitDy=0;" parent="SHPWQL9Js9zqcqUEqA2E-23" source="Lu3lADUNCScUDSHZM6QB-11" target="Lu3lADUNCScUDSHZM6QB-11" edge="1">
          <mxGeometry width="50" height="50" relative="1" as="geometry">
            <mxPoint x="179.08536667780905" y="61.8239040970154" as="sourcePoint" />
            <mxPoint x="216.3691787767364" y="61.8239040970154" as="targetPoint" />
            <Array as="points">
              <mxPoint x="83.04545454545453" />
              <mxPoint x="116" />
            </Array>
          </mxGeometry>
        </mxCell>
        <mxCell id="SHPWQL9Js9zqcqUEqA2E-19" value="" style="endArrow=none;html=1;rounded=0;fontSize=12;curved=1;entryX=1;entryY=0;entryDx=0;entryDy=0;exitX=0;exitY=0;exitDx=0;exitDy=0;" parent="SHPWQL9Js9zqcqUEqA2E-23" source="Lu3lADUNCScUDSHZM6QB-16" target="Lu3lADUNCScUDSHZM6QB-16" edge="1">
          <mxGeometry width="50" height="50" relative="1" as="geometry">
            <mxPoint x="165.90354849599086" y="144.58252478667058" as="sourcePoint" />
            <mxPoint x="203.18736059491823" y="144.58252478667058" as="targetPoint" />
            <Array as="points">
              <mxPoint x="168.72727272727272" y="120.68965517241378" />
              <mxPoint x="195.09090909090907" y="103.44827586206895" />
            </Array>
          </mxGeometry>
        </mxCell>
        <mxCell id="SHPWQL9Js9zqcqUEqA2E-20" value="" style="endArrow=none;html=1;rounded=0;fontSize=12;curved=1;entryX=1;entryY=0;entryDx=0;entryDy=0;exitX=0;exitY=0;exitDx=0;exitDy=0;" parent="SHPWQL9Js9zqcqUEqA2E-23" source="Lu3lADUNCScUDSHZM6QB-12" target="Lu3lADUNCScUDSHZM6QB-12" edge="1">
          <mxGeometry width="50" height="50" relative="1" as="geometry">
            <mxPoint x="78.90354849599088" y="144.58252478667058" as="sourcePoint" />
            <mxPoint x="116.18736059491819" y="144.58252478667058" as="targetPoint" />
            <Array as="points">
              <mxPoint x="83.04545454545453" y="120.68965517241378" />
              <mxPoint x="102.8181818181818" y="103.44827586206895" />
            </Array>
          </mxGeometry>
        </mxCell>
        <mxCell id="SHPWQL9Js9zqcqUEqA2E-21" value="" style="endArrow=none;html=1;rounded=0;fontSize=12;curved=1;entryX=1;entryY=0;entryDx=0;entryDy=0;exitX=0;exitY=0;exitDx=0;exitDy=0;" parent="SHPWQL9Js9zqcqUEqA2E-23" source="Lu3lADUNCScUDSHZM6QB-13" target="Lu3lADUNCScUDSHZM6QB-13" edge="1">
          <mxGeometry width="50" height="50" relative="1" as="geometry">
            <mxPoint x="78.90354849599088" y="234.23769720046366" as="sourcePoint" />
            <mxPoint x="116.18736059491819" y="234.23769720046366" as="targetPoint" />
            <Array as="points">
              <mxPoint x="83.04545454545453" y="206.8965517241379" />
              <mxPoint x="116" y="206.8965517241379" />
            </Array>
          </mxGeometry>
        </mxCell>
        <mxCell id="SHPWQL9Js9zqcqUEqA2E-22" value="" style="endArrow=none;html=1;rounded=0;fontSize=12;curved=1;entryX=1;entryY=0;entryDx=0;entryDy=0;exitX=0;exitY=0;exitDx=0;exitDy=0;" parent="SHPWQL9Js9zqcqUEqA2E-23" source="Lu3lADUNCScUDSHZM6QB-17" target="Lu3lADUNCScUDSHZM6QB-17" edge="1">
          <mxGeometry width="50" height="50" relative="1" as="geometry">
            <mxPoint x="167.22173031417267" y="241.1342489246016" as="sourcePoint" />
            <mxPoint x="204.50554241310004" y="241.1342489246016" as="targetPoint" />
            <Array as="points">
              <mxPoint x="167.40909090909088" y="206.8965517241379" />
              <mxPoint x="200.36363636363632" y="206.8965517241379" />
            </Array>
          </mxGeometry>
        </mxCell>
        <mxCell id="Yk8ms6qGuwUDCU6Bnd6E-4" value="LSTM Layers" style="text;html=1;align=center;verticalAlign=middle;whiteSpace=wrap;rounded=0;" vertex="1" parent="SHPWQL9Js9zqcqUEqA2E-23">
          <mxGeometry x="75" y="-50" width="140" height="30" as="geometry" />
        </mxCell>
        <mxCell id="Yk8ms6qGuwUDCU6Bnd6E-7" value="" style="group;fillColor=#f5f5f5;fontColor=#333333;strokeColor=#666666;" vertex="1" connectable="0" parent="SHPWQL9Js9zqcqUEqA2E-23">
          <mxGeometry width="320" height="320" as="geometry" />
        </mxCell>
        <mxCell id="Yk8ms6qGuwUDCU6Bnd6E-8" value="" style="rounded=0;whiteSpace=wrap;html=1;fillColor=#f5f5f5;strokeColor=#666666;fontColor=#333333;" vertex="1" parent="Yk8ms6qGuwUDCU6Bnd6E-7">
          <mxGeometry x="-30" y="-70" width="350" height="390" as="geometry" />
        </mxCell>
        <mxCell id="Yk8ms6qGuwUDCU6Bnd6E-9" value="" style="ellipse;whiteSpace=wrap;html=1;aspect=fixed;strokeColor=#6c8ebf;fillColor=#dae8fc;" vertex="1" parent="Yk8ms6qGuwUDCU6Bnd6E-7">
          <mxGeometry y="36.20689655172414" width="39.195979899497495" height="39.195979899497495" as="geometry" />
        </mxCell>
        <mxCell id="Yk8ms6qGuwUDCU6Bnd6E-10" value="" style="ellipse;whiteSpace=wrap;html=1;aspect=fixed;strokeColor=#6c8ebf;fillColor=#dae8fc;" vertex="1" parent="Yk8ms6qGuwUDCU6Bnd6E-7">
          <mxGeometry y="134.48275862068965" width="39.195979899497495" height="39.195979899497495" as="geometry" />
        </mxCell>
        <mxCell id="Yk8ms6qGuwUDCU6Bnd6E-11" value="" style="ellipse;whiteSpace=wrap;html=1;aspect=fixed;strokeColor=#6c8ebf;fillColor=#dae8fc;" vertex="1" parent="Yk8ms6qGuwUDCU6Bnd6E-7">
          <mxGeometry y="231.03448275862067" width="39.195979899497495" height="39.195979899497495" as="geometry" />
        </mxCell>
        <mxCell id="Yk8ms6qGuwUDCU6Bnd6E-12" value="" style="ellipse;whiteSpace=wrap;html=1;aspect=fixed;strokeColor=#666666;fillColor=#f5f5f5;fontColor=#333333;" vertex="1" parent="Yk8ms6qGuwUDCU6Bnd6E-7">
          <mxGeometry x="75.13636363636364" y="36.20689655172414" width="39.195979899497495" height="39.195979899497495" as="geometry" />
        </mxCell>
        <mxCell id="Yk8ms6qGuwUDCU6Bnd6E-13" value="" style="ellipse;whiteSpace=wrap;html=1;aspect=fixed;strokeColor=#666666;fillColor=#f5f5f5;fontColor=#333333;" vertex="1" parent="Yk8ms6qGuwUDCU6Bnd6E-7">
          <mxGeometry x="75.13636363636364" y="134.48275862068965" width="39.195979899497495" height="39.195979899497495" as="geometry" />
        </mxCell>
        <mxCell id="Yk8ms6qGuwUDCU6Bnd6E-14" value="" style="ellipse;whiteSpace=wrap;html=1;aspect=fixed;strokeColor=#666666;fillColor=#f5f5f5;fontColor=#333333;" vertex="1" parent="Yk8ms6qGuwUDCU6Bnd6E-7">
          <mxGeometry x="75.13636363636364" y="231.03448275862067" width="39.195979899497495" height="39.195979899497495" as="geometry" />
        </mxCell>
        <mxCell id="Yk8ms6qGuwUDCU6Bnd6E-15" value="" style="ellipse;whiteSpace=wrap;html=1;aspect=fixed;strokeColor=#666666;fillColor=#f5f5f5;fontColor=#333333;" vertex="1" parent="Yk8ms6qGuwUDCU6Bnd6E-7">
          <mxGeometry x="158.18181818181816" y="34.48275862068966" width="39.195979899497495" height="39.195979899497495" as="geometry" />
        </mxCell>
        <mxCell id="Yk8ms6qGuwUDCU6Bnd6E-16" value="" style="ellipse;whiteSpace=wrap;html=1;aspect=fixed;strokeColor=#666666;fillColor=#f5f5f5;fontColor=#333333;" vertex="1" parent="Yk8ms6qGuwUDCU6Bnd6E-7">
          <mxGeometry x="158.18181818181816" y="132.75862068965515" width="39.195979899497495" height="39.195979899497495" as="geometry" />
        </mxCell>
        <mxCell id="Yk8ms6qGuwUDCU6Bnd6E-17" value="" style="ellipse;whiteSpace=wrap;html=1;aspect=fixed;strokeColor=#666666;fillColor=#f5f5f5;fontColor=#333333;" vertex="1" parent="Yk8ms6qGuwUDCU6Bnd6E-7">
          <mxGeometry x="158.18181818181816" y="231.03448275862067" width="39.195979899497495" height="39.195979899497495" as="geometry" />
        </mxCell>
        <mxCell id="Yk8ms6qGuwUDCU6Bnd6E-18" value="" style="ellipse;whiteSpace=wrap;html=1;aspect=fixed;strokeColor=#b85450;fillColor=#f8cecc;" vertex="1" parent="Yk8ms6qGuwUDCU6Bnd6E-7">
          <mxGeometry x="237.27272727272722" y="36.20689655172414" width="39.195979899497495" height="39.195979899497495" as="geometry" />
        </mxCell>
        <mxCell id="Yk8ms6qGuwUDCU6Bnd6E-19" value="" style="ellipse;whiteSpace=wrap;html=1;aspect=fixed;strokeColor=#b85450;fillColor=#f8cecc;" vertex="1" parent="Yk8ms6qGuwUDCU6Bnd6E-7">
          <mxGeometry x="237.27272727272722" y="132.75862068965515" width="39.195979899497495" height="39.195979899497495" as="geometry" />
        </mxCell>
        <mxCell id="Yk8ms6qGuwUDCU6Bnd6E-20" value="" style="ellipse;whiteSpace=wrap;html=1;aspect=fixed;strokeColor=#b85450;fillColor=#f8cecc;" vertex="1" parent="Yk8ms6qGuwUDCU6Bnd6E-7">
          <mxGeometry x="237.27272727272722" y="231.03448275862067" width="39.195979899497495" height="39.195979899497495" as="geometry" />
        </mxCell>
        <mxCell id="Yk8ms6qGuwUDCU6Bnd6E-21" value="" style="endArrow=none;html=1;rounded=0;exitX=1;exitY=0.5;exitDx=0;exitDy=0;entryX=0;entryY=0.5;entryDx=0;entryDy=0;" edge="1" parent="Yk8ms6qGuwUDCU6Bnd6E-7" source="Yk8ms6qGuwUDCU6Bnd6E-10" target="Yk8ms6qGuwUDCU6Bnd6E-13">
          <mxGeometry width="50" height="50" relative="1" as="geometry">
            <mxPoint x="278.1363636363636" y="215.5172413793103" as="sourcePoint" />
            <mxPoint x="67.22727272727273" y="198.27586206896552" as="targetPoint" />
          </mxGeometry>
        </mxCell>
        <mxCell id="Yk8ms6qGuwUDCU6Bnd6E-22" value="" style="endArrow=none;html=1;rounded=0;exitX=1;exitY=0.5;exitDx=0;exitDy=0;entryX=0;entryY=0.5;entryDx=0;entryDy=0;" edge="1" parent="Yk8ms6qGuwUDCU6Bnd6E-7" source="Yk8ms6qGuwUDCU6Bnd6E-11" target="Yk8ms6qGuwUDCU6Bnd6E-14">
          <mxGeometry width="50" height="50" relative="1" as="geometry">
            <mxPoint x="278.1363636363636" y="215.5172413793103" as="sourcePoint" />
            <mxPoint x="344.04545454545456" y="129.3103448275862" as="targetPoint" />
          </mxGeometry>
        </mxCell>
        <mxCell id="Yk8ms6qGuwUDCU6Bnd6E-23" value="" style="endArrow=none;html=1;rounded=0;exitX=1;exitY=1;exitDx=0;exitDy=0;entryX=0;entryY=0;entryDx=0;entryDy=0;" edge="1" parent="Yk8ms6qGuwUDCU6Bnd6E-7" source="Yk8ms6qGuwUDCU6Bnd6E-9" target="Yk8ms6qGuwUDCU6Bnd6E-13">
          <mxGeometry width="50" height="50" relative="1" as="geometry">
            <mxPoint x="278.1363636363636" y="181.0344827586207" as="sourcePoint" />
            <mxPoint x="344.04545454545456" y="94.82758620689654" as="targetPoint" />
          </mxGeometry>
        </mxCell>
        <mxCell id="Yk8ms6qGuwUDCU6Bnd6E-24" value="" style="endArrow=none;html=1;rounded=0;exitX=1;exitY=1;exitDx=0;exitDy=0;entryX=0;entryY=0;entryDx=0;entryDy=0;" edge="1" parent="Yk8ms6qGuwUDCU6Bnd6E-7" source="Yk8ms6qGuwUDCU6Bnd6E-10" target="Yk8ms6qGuwUDCU6Bnd6E-14">
          <mxGeometry width="50" height="50" relative="1" as="geometry">
            <mxPoint x="278.1363636363636" y="181.0344827586207" as="sourcePoint" />
            <mxPoint x="344.04545454545456" y="94.82758620689654" as="targetPoint" />
          </mxGeometry>
        </mxCell>
        <mxCell id="Yk8ms6qGuwUDCU6Bnd6E-25" value="" style="endArrow=none;html=1;rounded=0;exitX=1;exitY=0;exitDx=0;exitDy=0;entryX=0;entryY=1;entryDx=0;entryDy=0;" edge="1" parent="Yk8ms6qGuwUDCU6Bnd6E-7" source="Yk8ms6qGuwUDCU6Bnd6E-10" target="Yk8ms6qGuwUDCU6Bnd6E-12">
          <mxGeometry width="50" height="50" relative="1" as="geometry">
            <mxPoint x="71.36917877673639" y="-15.762302799536315" as="sourcePoint" />
            <mxPoint x="109.22173031417269" y="-65.27217995908437" as="targetPoint" />
          </mxGeometry>
        </mxCell>
        <mxCell id="Yk8ms6qGuwUDCU6Bnd6E-26" value="" style="endArrow=none;html=1;rounded=0;exitX=1;exitY=0;exitDx=0;exitDy=0;entryX=0;entryY=1;entryDx=0;entryDy=0;" edge="1" parent="Yk8ms6qGuwUDCU6Bnd6E-7" source="Yk8ms6qGuwUDCU6Bnd6E-11" target="Yk8ms6qGuwUDCU6Bnd6E-13">
          <mxGeometry width="50" height="50" relative="1" as="geometry">
            <mxPoint x="84.55099695855458" y="1.479076510808509" as="sourcePoint" />
            <mxPoint x="122.40354849599083" y="-48.03080064873954" as="targetPoint" />
          </mxGeometry>
        </mxCell>
        <mxCell id="Yk8ms6qGuwUDCU6Bnd6E-27" value="" style="endArrow=none;html=1;rounded=0;entryX=0;entryY=0.5;entryDx=0;entryDy=0;exitX=1;exitY=1;exitDx=0;exitDy=0;" edge="1" parent="Yk8ms6qGuwUDCU6Bnd6E-7" source="Yk8ms6qGuwUDCU6Bnd6E-15" target="Yk8ms6qGuwUDCU6Bnd6E-19">
          <mxGeometry width="50" height="50" relative="1" as="geometry">
            <mxPoint x="232" y="24.137931034482754" as="sourcePoint" />
            <mxPoint x="271.3580939505366" y="177.34114547632612" as="targetPoint" />
          </mxGeometry>
        </mxCell>
        <mxCell id="Yk8ms6qGuwUDCU6Bnd6E-28" value="" style="endArrow=none;html=1;rounded=0;entryX=0;entryY=0;entryDx=0;entryDy=0;exitX=1;exitY=1;exitDx=0;exitDy=0;" edge="1" parent="Yk8ms6qGuwUDCU6Bnd6E-7" source="Yk8ms6qGuwUDCU6Bnd6E-15" target="Yk8ms6qGuwUDCU6Bnd6E-20">
          <mxGeometry width="50" height="50" relative="1" as="geometry">
            <mxPoint x="216.36917877673608" y="110.58988900643249" as="sourcePoint" />
            <mxPoint x="250.45454545454544" y="184.48275862068965" as="targetPoint" />
          </mxGeometry>
        </mxCell>
        <mxCell id="Yk8ms6qGuwUDCU6Bnd6E-29" value="" style="endArrow=none;html=1;rounded=0;entryX=0;entryY=0.5;entryDx=0;entryDy=0;exitX=1;exitY=0.5;exitDx=0;exitDy=0;" edge="1" parent="Yk8ms6qGuwUDCU6Bnd6E-7" source="Yk8ms6qGuwUDCU6Bnd6E-16" target="Yk8ms6qGuwUDCU6Bnd6E-19">
          <mxGeometry width="50" height="50" relative="1" as="geometry">
            <mxPoint x="224.09090909090907" y="86.20689655172414" as="sourcePoint" />
            <mxPoint x="250.45454545454544" y="87.93103448275862" as="targetPoint" />
          </mxGeometry>
        </mxCell>
        <mxCell id="Yk8ms6qGuwUDCU6Bnd6E-30" value="" style="endArrow=none;html=1;rounded=0;entryX=0;entryY=0;entryDx=0;entryDy=0;exitX=1;exitY=1;exitDx=0;exitDy=0;" edge="1" parent="Yk8ms6qGuwUDCU6Bnd6E-7" source="Yk8ms6qGuwUDCU6Bnd6E-16" target="Yk8ms6qGuwUDCU6Bnd6E-20">
          <mxGeometry width="50" height="50" relative="1" as="geometry">
            <mxPoint x="224.09090909090907" y="184.48275862068965" as="sourcePoint" />
            <mxPoint x="250.45454545454544" y="184.48275862068965" as="targetPoint" />
          </mxGeometry>
        </mxCell>
        <mxCell id="Yk8ms6qGuwUDCU6Bnd6E-31" value="" style="endArrow=none;html=1;rounded=0;exitX=1;exitY=0.5;exitDx=0;exitDy=0;entryX=0;entryY=0.5;entryDx=0;entryDy=0;" edge="1" parent="Yk8ms6qGuwUDCU6Bnd6E-7" source="Yk8ms6qGuwUDCU6Bnd6E-17" target="Yk8ms6qGuwUDCU6Bnd6E-20">
          <mxGeometry width="50" height="50" relative="1" as="geometry">
            <mxPoint x="216.36917877673608" y="208.86575107539798" as="sourcePoint" />
            <mxPoint x="232" y="299.99999999999994" as="targetPoint" />
          </mxGeometry>
        </mxCell>
        <mxCell id="Yk8ms6qGuwUDCU6Bnd6E-32" value="" style="endArrow=none;html=1;rounded=0;exitX=1;exitY=0;exitDx=0;exitDy=0;entryX=0;entryY=1;entryDx=0;entryDy=0;" edge="1" parent="Yk8ms6qGuwUDCU6Bnd6E-7" source="Yk8ms6qGuwUDCU6Bnd6E-17" target="Yk8ms6qGuwUDCU6Bnd6E-19">
          <mxGeometry width="50" height="50" relative="1" as="geometry">
            <mxPoint x="224.09090909090907" y="282.7586206896552" as="sourcePoint" />
            <mxPoint x="250.45454545454544" y="282.7586206896552" as="targetPoint" />
          </mxGeometry>
        </mxCell>
        <mxCell id="Yk8ms6qGuwUDCU6Bnd6E-33" value="" style="endArrow=none;html=1;rounded=0;exitX=1;exitY=0;exitDx=0;exitDy=0;entryX=0;entryY=1;entryDx=0;entryDy=0;" edge="1" parent="Yk8ms6qGuwUDCU6Bnd6E-7" source="Yk8ms6qGuwUDCU6Bnd6E-17" target="Yk8ms6qGuwUDCU6Bnd6E-18">
          <mxGeometry width="50" height="50" relative="1" as="geometry">
            <mxPoint x="216.36917877673608" y="258.37562823494676" as="sourcePoint" />
            <mxPoint x="258.17627576871837" y="208.86575107539798" as="targetPoint" />
          </mxGeometry>
        </mxCell>
        <mxCell id="Yk8ms6qGuwUDCU6Bnd6E-34" value="" style="endArrow=none;html=1;rounded=0;exitX=1;exitY=0;exitDx=0;exitDy=0;entryX=0;entryY=1;entryDx=0;entryDy=0;" edge="1" parent="Yk8ms6qGuwUDCU6Bnd6E-7" source="Yk8ms6qGuwUDCU6Bnd6E-16" target="Yk8ms6qGuwUDCU6Bnd6E-18">
          <mxGeometry width="50" height="50" relative="1" as="geometry">
            <mxPoint x="216.36917877673608" y="258.37562823494676" as="sourcePoint" />
            <mxPoint x="258.17627576871837" y="14.038164868501442" as="targetPoint" />
          </mxGeometry>
        </mxCell>
        <mxCell id="Yk8ms6qGuwUDCU6Bnd6E-35" value="" style="endArrow=none;html=1;rounded=0;exitX=1;exitY=0.5;exitDx=0;exitDy=0;entryX=0;entryY=0.5;entryDx=0;entryDy=0;" edge="1" parent="Yk8ms6qGuwUDCU6Bnd6E-7" source="Yk8ms6qGuwUDCU6Bnd6E-9" target="Yk8ms6qGuwUDCU6Bnd6E-12">
          <mxGeometry width="50" height="50" relative="1" as="geometry">
            <mxPoint x="58.18736059491822" y="112.31402693746733" as="sourcePoint" />
            <mxPoint x="96.0399121323545" y="161.82390409701537" as="targetPoint" />
          </mxGeometry>
        </mxCell>
        <mxCell id="Yk8ms6qGuwUDCU6Bnd6E-36" value="" style="endArrow=none;html=1;rounded=0;exitX=1;exitY=1;exitDx=0;exitDy=0;entryX=0;entryY=0;entryDx=0;entryDy=0;" edge="1" parent="Yk8ms6qGuwUDCU6Bnd6E-7" source="Yk8ms6qGuwUDCU6Bnd6E-9" target="Yk8ms6qGuwUDCU6Bnd6E-14">
          <mxGeometry width="50" height="50" relative="1" as="geometry">
            <mxPoint x="65.9090909090909" y="87.93103448275862" as="sourcePoint" />
            <mxPoint x="88.31818181818181" y="87.93103448275862" as="targetPoint" />
          </mxGeometry>
        </mxCell>
        <mxCell id="Yk8ms6qGuwUDCU6Bnd6E-37" value="" style="endArrow=none;html=1;rounded=0;exitX=1;exitY=0;exitDx=0;exitDy=0;entryX=0;entryY=1;entryDx=0;entryDy=0;" edge="1" parent="Yk8ms6qGuwUDCU6Bnd6E-7" source="Yk8ms6qGuwUDCU6Bnd6E-11" target="Yk8ms6qGuwUDCU6Bnd6E-12">
          <mxGeometry width="50" height="50" relative="1" as="geometry">
            <mxPoint x="58.18736059491822" y="112.31402693746733" as="sourcePoint" />
            <mxPoint x="96.0399121323545" y="258.3756282349465" as="targetPoint" />
          </mxGeometry>
        </mxCell>
        <mxCell id="Yk8ms6qGuwUDCU6Bnd6E-38" value="" style="endArrow=none;html=1;rounded=0;exitX=1;exitY=0.5;exitDx=0;exitDy=0;entryX=0;entryY=0.5;entryDx=0;entryDy=0;" edge="1" parent="Yk8ms6qGuwUDCU6Bnd6E-7" source="Yk8ms6qGuwUDCU6Bnd6E-15" target="Yk8ms6qGuwUDCU6Bnd6E-18">
          <mxGeometry width="50" height="50" relative="1" as="geometry">
            <mxPoint x="65.9090909090909" y="87.93103448275862" as="sourcePoint" />
            <mxPoint x="88.31818181818181" y="87.93103448275862" as="targetPoint" />
          </mxGeometry>
        </mxCell>
        <mxCell id="Yk8ms6qGuwUDCU6Bnd6E-39" value="" style="endArrow=none;html=1;rounded=0;exitX=1;exitY=0.5;exitDx=0;exitDy=0;entryX=0;entryY=0.5;entryDx=0;entryDy=0;" edge="1" parent="Yk8ms6qGuwUDCU6Bnd6E-7" source="Yk8ms6qGuwUDCU6Bnd6E-12" target="Yk8ms6qGuwUDCU6Bnd6E-15">
          <mxGeometry width="50" height="50" relative="1" as="geometry">
            <mxPoint x="224.09090909090907" y="86.20689655172414" as="sourcePoint" />
            <mxPoint x="118.63636363636361" y="-10.344827586206897" as="targetPoint" />
          </mxGeometry>
        </mxCell>
        <mxCell id="Yk8ms6qGuwUDCU6Bnd6E-40" value="" style="endArrow=none;html=1;rounded=0;exitX=1;exitY=1;exitDx=0;exitDy=0;entryX=0;entryY=0;entryDx=0;entryDy=0;" edge="1" parent="Yk8ms6qGuwUDCU6Bnd6E-7" source="Yk8ms6qGuwUDCU6Bnd6E-12" target="Yk8ms6qGuwUDCU6Bnd6E-16">
          <mxGeometry width="50" height="50" relative="1" as="geometry">
            <mxPoint x="141.04545454545453" y="87.93103448275862" as="sourcePoint" />
            <mxPoint x="171.36363636363635" y="86.20689655172414" as="targetPoint" />
          </mxGeometry>
        </mxCell>
        <mxCell id="Yk8ms6qGuwUDCU6Bnd6E-41" value="" style="endArrow=none;html=1;rounded=0;exitX=1;exitY=1;exitDx=0;exitDy=0;entryX=0;entryY=0;entryDx=0;entryDy=0;" edge="1" parent="Yk8ms6qGuwUDCU6Bnd6E-7" source="Yk8ms6qGuwUDCU6Bnd6E-12" target="Yk8ms6qGuwUDCU6Bnd6E-17">
          <mxGeometry width="50" height="50" relative="1" as="geometry">
            <mxPoint x="133.3237242312819" y="112.31402693746733" as="sourcePoint" />
            <mxPoint x="179.08536667780905" y="160.09976616598092" as="targetPoint" />
          </mxGeometry>
        </mxCell>
        <mxCell id="Yk8ms6qGuwUDCU6Bnd6E-42" value="" style="endArrow=none;html=1;rounded=0;exitX=1;exitY=0.5;exitDx=0;exitDy=0;entryX=0;entryY=0.5;entryDx=0;entryDy=0;" edge="1" parent="Yk8ms6qGuwUDCU6Bnd6E-7" source="Yk8ms6qGuwUDCU6Bnd6E-13" target="Yk8ms6qGuwUDCU6Bnd6E-16">
          <mxGeometry width="50" height="50" relative="1" as="geometry">
            <mxPoint x="133.3237242312819" y="112.31402693746733" as="sourcePoint" />
            <mxPoint x="179.08536667780905" y="258.3756282349465" as="targetPoint" />
          </mxGeometry>
        </mxCell>
        <mxCell id="Yk8ms6qGuwUDCU6Bnd6E-43" value="" style="endArrow=none;html=1;rounded=0;exitX=1;exitY=1;exitDx=0;exitDy=0;entryX=0;entryY=0;entryDx=0;entryDy=0;" edge="1" parent="Yk8ms6qGuwUDCU6Bnd6E-7" source="Yk8ms6qGuwUDCU6Bnd6E-13" target="Yk8ms6qGuwUDCU6Bnd6E-17">
          <mxGeometry width="50" height="50" relative="1" as="geometry">
            <mxPoint x="141.04545454545453" y="186.2068965517241" as="sourcePoint" />
            <mxPoint x="171.36363636363635" y="184.48275862068965" as="targetPoint" />
          </mxGeometry>
        </mxCell>
        <mxCell id="Yk8ms6qGuwUDCU6Bnd6E-44" value="" style="endArrow=none;html=1;rounded=0;exitX=1;exitY=0.5;exitDx=0;exitDy=0;entryX=0;entryY=0.5;entryDx=0;entryDy=0;" edge="1" parent="Yk8ms6qGuwUDCU6Bnd6E-7" source="Yk8ms6qGuwUDCU6Bnd6E-14" target="Yk8ms6qGuwUDCU6Bnd6E-17">
          <mxGeometry width="50" height="50" relative="1" as="geometry">
            <mxPoint x="133.3237242312819" y="210.58988900643286" as="sourcePoint" />
            <mxPoint x="179.08536667780905" y="258.3756282349465" as="targetPoint" />
          </mxGeometry>
        </mxCell>
        <mxCell id="Yk8ms6qGuwUDCU6Bnd6E-45" value="" style="endArrow=none;html=1;rounded=0;exitX=1;exitY=0;exitDx=0;exitDy=0;entryX=0;entryY=1;entryDx=0;entryDy=0;" edge="1" parent="Yk8ms6qGuwUDCU6Bnd6E-7" source="Yk8ms6qGuwUDCU6Bnd6E-14" target="Yk8ms6qGuwUDCU6Bnd6E-16">
          <mxGeometry width="50" height="50" relative="1" as="geometry">
            <mxPoint x="141.04545454545453" y="282.7586206896552" as="sourcePoint" />
            <mxPoint x="171.36363636363635" y="282.7586206896552" as="targetPoint" />
          </mxGeometry>
        </mxCell>
        <mxCell id="Yk8ms6qGuwUDCU6Bnd6E-46" value="" style="endArrow=none;html=1;rounded=0;exitX=1;exitY=0;exitDx=0;exitDy=0;entryX=0;entryY=1;entryDx=0;entryDy=0;" edge="1" parent="Yk8ms6qGuwUDCU6Bnd6E-7" source="Yk8ms6qGuwUDCU6Bnd6E-14" target="Yk8ms6qGuwUDCU6Bnd6E-15">
          <mxGeometry width="50" height="50" relative="1" as="geometry">
            <mxPoint x="133.3237242312819" y="258.3756282349465" as="sourcePoint" />
            <mxPoint x="179.08536667780905" y="208.86575107539838" as="targetPoint" />
          </mxGeometry>
        </mxCell>
        <mxCell id="Yk8ms6qGuwUDCU6Bnd6E-47" value="" style="endArrow=none;html=1;rounded=0;exitX=1;exitY=0;exitDx=0;exitDy=0;entryX=0;entryY=1;entryDx=0;entryDy=0;" edge="1" parent="Yk8ms6qGuwUDCU6Bnd6E-7" source="Yk8ms6qGuwUDCU6Bnd6E-13" target="Yk8ms6qGuwUDCU6Bnd6E-15">
          <mxGeometry width="50" height="50" relative="1" as="geometry">
            <mxPoint x="133.3237242312819" y="258.3756282349465" as="sourcePoint" />
            <mxPoint x="179.08536667780905" y="110.58988900643288" as="targetPoint" />
          </mxGeometry>
        </mxCell>
        <mxCell id="Yk8ms6qGuwUDCU6Bnd6E-48" value="" style="endArrow=none;html=1;rounded=0;fontSize=12;curved=1;entryX=1;entryY=0;entryDx=0;entryDy=0;exitX=0;exitY=0;exitDx=0;exitDy=0;" edge="1" parent="Yk8ms6qGuwUDCU6Bnd6E-7" source="Yk8ms6qGuwUDCU6Bnd6E-15" target="Yk8ms6qGuwUDCU6Bnd6E-15">
          <mxGeometry width="50" height="50" relative="1" as="geometry">
            <mxPoint x="63.27272727272726" y="86.20689655172414" as="sourcePoint" />
            <mxPoint x="129.18181818181816" as="targetPoint" />
            <Array as="points">
              <mxPoint x="166.09090909090907" />
              <mxPoint x="195.09090909090907" />
            </Array>
          </mxGeometry>
        </mxCell>
        <mxCell id="Yk8ms6qGuwUDCU6Bnd6E-49" value="" style="endArrow=none;html=1;rounded=0;fontSize=12;curved=1;entryX=1;entryY=0;entryDx=0;entryDy=0;exitX=0;exitY=0;exitDx=0;exitDy=0;" edge="1" parent="Yk8ms6qGuwUDCU6Bnd6E-7" source="Yk8ms6qGuwUDCU6Bnd6E-12" target="Yk8ms6qGuwUDCU6Bnd6E-12">
          <mxGeometry width="50" height="50" relative="1" as="geometry">
            <mxPoint x="179.08536667780905" y="61.8239040970154" as="sourcePoint" />
            <mxPoint x="216.3691787767364" y="61.8239040970154" as="targetPoint" />
            <Array as="points">
              <mxPoint x="83.04545454545453" />
              <mxPoint x="116" />
            </Array>
          </mxGeometry>
        </mxCell>
        <mxCell id="Yk8ms6qGuwUDCU6Bnd6E-50" value="" style="endArrow=none;html=1;rounded=0;fontSize=12;curved=1;entryX=1;entryY=0;entryDx=0;entryDy=0;exitX=0;exitY=0;exitDx=0;exitDy=0;" edge="1" parent="Yk8ms6qGuwUDCU6Bnd6E-7" source="Yk8ms6qGuwUDCU6Bnd6E-16" target="Yk8ms6qGuwUDCU6Bnd6E-16">
          <mxGeometry width="50" height="50" relative="1" as="geometry">
            <mxPoint x="165.90354849599086" y="144.58252478667058" as="sourcePoint" />
            <mxPoint x="203.18736059491823" y="144.58252478667058" as="targetPoint" />
            <Array as="points">
              <mxPoint x="168.72727272727272" y="120.68965517241378" />
              <mxPoint x="195.09090909090907" y="103.44827586206895" />
            </Array>
          </mxGeometry>
        </mxCell>
        <mxCell id="Yk8ms6qGuwUDCU6Bnd6E-51" value="" style="endArrow=none;html=1;rounded=0;fontSize=12;curved=1;entryX=1;entryY=0;entryDx=0;entryDy=0;exitX=0;exitY=0;exitDx=0;exitDy=0;" edge="1" parent="Yk8ms6qGuwUDCU6Bnd6E-7" source="Yk8ms6qGuwUDCU6Bnd6E-13" target="Yk8ms6qGuwUDCU6Bnd6E-13">
          <mxGeometry width="50" height="50" relative="1" as="geometry">
            <mxPoint x="78.90354849599088" y="144.58252478667058" as="sourcePoint" />
            <mxPoint x="116.18736059491819" y="144.58252478667058" as="targetPoint" />
            <Array as="points">
              <mxPoint x="83.04545454545453" y="120.68965517241378" />
              <mxPoint x="102.8181818181818" y="103.44827586206895" />
            </Array>
          </mxGeometry>
        </mxCell>
        <mxCell id="Yk8ms6qGuwUDCU6Bnd6E-52" value="" style="endArrow=none;html=1;rounded=0;fontSize=12;curved=1;entryX=1;entryY=0;entryDx=0;entryDy=0;exitX=0;exitY=0;exitDx=0;exitDy=0;" edge="1" parent="Yk8ms6qGuwUDCU6Bnd6E-7" source="Yk8ms6qGuwUDCU6Bnd6E-14" target="Yk8ms6qGuwUDCU6Bnd6E-14">
          <mxGeometry width="50" height="50" relative="1" as="geometry">
            <mxPoint x="78.90354849599088" y="234.23769720046366" as="sourcePoint" />
            <mxPoint x="116.18736059491819" y="234.23769720046366" as="targetPoint" />
            <Array as="points">
              <mxPoint x="83.04545454545453" y="206.8965517241379" />
              <mxPoint x="116" y="206.8965517241379" />
            </Array>
          </mxGeometry>
        </mxCell>
        <mxCell id="Yk8ms6qGuwUDCU6Bnd6E-53" value="" style="endArrow=none;html=1;rounded=0;fontSize=12;curved=1;entryX=1;entryY=0;entryDx=0;entryDy=0;exitX=0;exitY=0;exitDx=0;exitDy=0;" edge="1" parent="Yk8ms6qGuwUDCU6Bnd6E-7" source="Yk8ms6qGuwUDCU6Bnd6E-17" target="Yk8ms6qGuwUDCU6Bnd6E-17">
          <mxGeometry width="50" height="50" relative="1" as="geometry">
            <mxPoint x="167.22173031417267" y="241.1342489246016" as="sourcePoint" />
            <mxPoint x="204.50554241310004" y="241.1342489246016" as="targetPoint" />
            <Array as="points">
              <mxPoint x="167.40909090909088" y="206.8965517241379" />
              <mxPoint x="200.36363636363632" y="206.8965517241379" />
            </Array>
          </mxGeometry>
        </mxCell>
        <mxCell id="Yk8ms6qGuwUDCU6Bnd6E-54" value="LSTM Layers" style="text;html=1;align=center;verticalAlign=middle;whiteSpace=wrap;rounded=0;" vertex="1" parent="Yk8ms6qGuwUDCU6Bnd6E-7">
          <mxGeometry x="75" y="-50" width="140" height="30" as="geometry" />
        </mxCell>
        <mxCell id="Yk8ms6qGuwUDCU6Bnd6E-5" value="" style="rounded=0;whiteSpace=wrap;html=1;fillColor=#f5f5f5;strokeColor=#666666;fontColor=#333333;" vertex="1" parent="Lu3lADUNCScUDSHZM6QB-1">
          <mxGeometry x="20" y="160" width="90" height="390" as="geometry" />
        </mxCell>
        <mxCell id="Yk8ms6qGuwUDCU6Bnd6E-6" value="" style="rounded=0;whiteSpace=wrap;html=1;fillColor=#f5f5f5;strokeColor=#666666;fontColor=#333333;" vertex="1" parent="Lu3lADUNCScUDSHZM6QB-1">
          <mxGeometry x="460" y="160" width="180" height="390" as="geometry" />
        </mxCell>
        <mxCell id="Yk8ms6qGuwUDCU6Bnd6E-55" value="" style="ellipse;whiteSpace=wrap;html=1;aspect=fixed;strokeColor=#d6b656;fillColor=#fff2cc;" vertex="1" parent="Lu3lADUNCScUDSHZM6QB-1">
          <mxGeometry x="490" y="266.2068965517241" width="39.195979899497495" height="39.195979899497495" as="geometry" />
        </mxCell>
        <mxCell id="Yk8ms6qGuwUDCU6Bnd6E-56" value="" style="ellipse;whiteSpace=wrap;html=1;aspect=fixed;strokeColor=#d6b656;fillColor=#fff2cc;" vertex="1" parent="Lu3lADUNCScUDSHZM6QB-1">
          <mxGeometry x="490" y="364.48275862068965" width="39.195979899497495" height="39.195979899497495" as="geometry" />
        </mxCell>
        <mxCell id="Yk8ms6qGuwUDCU6Bnd6E-57" value="" style="ellipse;whiteSpace=wrap;html=1;aspect=fixed;strokeColor=#d6b656;fillColor=#fff2cc;" vertex="1" parent="Lu3lADUNCScUDSHZM6QB-1">
          <mxGeometry x="490" y="461.0344827586207" width="39.195979899497495" height="39.195979899497495" as="geometry" />
        </mxCell>
        <mxCell id="Yk8ms6qGuwUDCU6Bnd6E-59" value="" style="ellipse;whiteSpace=wrap;html=1;aspect=fixed;strokeColor=#6c8ebf;fillColor=#dae8fc;" vertex="1" parent="Lu3lADUNCScUDSHZM6QB-1">
          <mxGeometry x="565.1363636363636" y="364.48275862068965" width="39.195979899497495" height="39.195979899497495" as="geometry" />
        </mxCell>
        <mxCell id="Yk8ms6qGuwUDCU6Bnd6E-61" value="" style="endArrow=none;html=1;rounded=0;exitX=1;exitY=0.5;exitDx=0;exitDy=0;entryX=0;entryY=0.5;entryDx=0;entryDy=0;" edge="1" parent="Lu3lADUNCScUDSHZM6QB-1" source="Yk8ms6qGuwUDCU6Bnd6E-56" target="Yk8ms6qGuwUDCU6Bnd6E-59">
          <mxGeometry width="50" height="50" relative="1" as="geometry">
            <mxPoint x="768.1363636363636" y="445.5172413793103" as="sourcePoint" />
            <mxPoint x="557.2272727272727" y="428.2758620689655" as="targetPoint" />
          </mxGeometry>
        </mxCell>
        <mxCell id="Yk8ms6qGuwUDCU6Bnd6E-63" value="" style="endArrow=none;html=1;rounded=0;exitX=1;exitY=1;exitDx=0;exitDy=0;entryX=0;entryY=0;entryDx=0;entryDy=0;" edge="1" parent="Lu3lADUNCScUDSHZM6QB-1" source="Yk8ms6qGuwUDCU6Bnd6E-55" target="Yk8ms6qGuwUDCU6Bnd6E-59">
          <mxGeometry width="50" height="50" relative="1" as="geometry">
            <mxPoint x="768.1363636363636" y="411.0344827586207" as="sourcePoint" />
            <mxPoint x="834.0454545454545" y="324.8275862068965" as="targetPoint" />
          </mxGeometry>
        </mxCell>
        <mxCell id="Yk8ms6qGuwUDCU6Bnd6E-66" value="" style="endArrow=none;html=1;rounded=0;exitX=1;exitY=0;exitDx=0;exitDy=0;entryX=0;entryY=1;entryDx=0;entryDy=0;" edge="1" parent="Lu3lADUNCScUDSHZM6QB-1" source="Yk8ms6qGuwUDCU6Bnd6E-57" target="Yk8ms6qGuwUDCU6Bnd6E-59">
          <mxGeometry width="50" height="50" relative="1" as="geometry">
            <mxPoint x="574.5509969585546" y="231.4790765108085" as="sourcePoint" />
            <mxPoint x="612.4035484959909" y="181.96919935126044" as="targetPoint" />
          </mxGeometry>
        </mxCell>
        <mxCell id="Yk8ms6qGuwUDCU6Bnd6E-73" value="" style="ellipse;whiteSpace=wrap;html=1;aspect=fixed;strokeColor=#6c8ebf;fillColor=#dae8fc;" vertex="1" parent="Lu3lADUNCScUDSHZM6QB-1">
          <mxGeometry x="490" y="266.2068965517241" width="39.195979899497495" height="39.195979899497495" as="geometry" />
        </mxCell>
        <mxCell id="Yk8ms6qGuwUDCU6Bnd6E-74" value="" style="ellipse;whiteSpace=wrap;html=1;aspect=fixed;strokeColor=#6c8ebf;fillColor=#dae8fc;" vertex="1" parent="Lu3lADUNCScUDSHZM6QB-1">
          <mxGeometry x="490" y="364.48275862068965" width="39.195979899497495" height="39.195979899497495" as="geometry" />
        </mxCell>
        <mxCell id="Yk8ms6qGuwUDCU6Bnd6E-75" value="" style="ellipse;whiteSpace=wrap;html=1;aspect=fixed;strokeColor=#6c8ebf;fillColor=#dae8fc;" vertex="1" parent="Lu3lADUNCScUDSHZM6QB-1">
          <mxGeometry x="490" y="461.0344827586207" width="39.195979899497495" height="39.195979899497495" as="geometry" />
        </mxCell>
        <mxCell id="Yk8ms6qGuwUDCU6Bnd6E-77" value="" style="ellipse;whiteSpace=wrap;html=1;aspect=fixed;strokeColor=#b85450;fillColor=#f8cecc;" vertex="1" parent="Lu3lADUNCScUDSHZM6QB-1">
          <mxGeometry x="565.1363636363636" y="364.48275862068965" width="39.195979899497495" height="39.195979899497495" as="geometry" />
        </mxCell>
        <mxCell id="Yk8ms6qGuwUDCU6Bnd6E-79" value="" style="endArrow=none;html=1;rounded=0;exitX=1;exitY=0.5;exitDx=0;exitDy=0;entryX=0;entryY=0.5;entryDx=0;entryDy=0;" edge="1" parent="Lu3lADUNCScUDSHZM6QB-1" source="Yk8ms6qGuwUDCU6Bnd6E-74" target="Yk8ms6qGuwUDCU6Bnd6E-77">
          <mxGeometry width="50" height="50" relative="1" as="geometry">
            <mxPoint x="768.1363636363636" y="445.5172413793103" as="sourcePoint" />
            <mxPoint x="557.2272727272727" y="428.2758620689655" as="targetPoint" />
          </mxGeometry>
        </mxCell>
        <mxCell id="Yk8ms6qGuwUDCU6Bnd6E-81" value="" style="endArrow=none;html=1;rounded=0;exitX=1;exitY=1;exitDx=0;exitDy=0;entryX=0;entryY=0;entryDx=0;entryDy=0;" edge="1" parent="Lu3lADUNCScUDSHZM6QB-1" source="Yk8ms6qGuwUDCU6Bnd6E-73" target="Yk8ms6qGuwUDCU6Bnd6E-77">
          <mxGeometry width="50" height="50" relative="1" as="geometry">
            <mxPoint x="768.1363636363636" y="411.0344827586207" as="sourcePoint" />
            <mxPoint x="834.0454545454545" y="324.8275862068965" as="targetPoint" />
          </mxGeometry>
        </mxCell>
        <mxCell id="Yk8ms6qGuwUDCU6Bnd6E-84" value="" style="endArrow=none;html=1;rounded=0;exitX=1;exitY=0;exitDx=0;exitDy=0;entryX=0;entryY=1;entryDx=0;entryDy=0;" edge="1" parent="Lu3lADUNCScUDSHZM6QB-1" source="Yk8ms6qGuwUDCU6Bnd6E-75" target="Yk8ms6qGuwUDCU6Bnd6E-77">
          <mxGeometry width="50" height="50" relative="1" as="geometry">
            <mxPoint x="574.5509969585546" y="231.4790765108085" as="sourcePoint" />
            <mxPoint x="612.4035484959909" y="181.96919935126044" as="targetPoint" />
          </mxGeometry>
        </mxCell>
        <mxCell id="Yk8ms6qGuwUDCU6Bnd6E-92" value="Dense layer" style="text;html=1;align=center;verticalAlign=middle;whiteSpace=wrap;rounded=0;" vertex="1" parent="Lu3lADUNCScUDSHZM6QB-1">
          <mxGeometry x="500" y="180" width="100" height="30" as="geometry" />
        </mxCell>
        <mxCell id="Yk8ms6qGuwUDCU6Bnd6E-93" value="Input&lt;div&gt;&lt;font style=&quot;font-size: 10px;&quot;&gt;Normalization by min-max&lt;/font&gt;&lt;/div&gt;" style="text;html=1;align=center;verticalAlign=middle;whiteSpace=wrap;rounded=0;" vertex="1" parent="Lu3lADUNCScUDSHZM6QB-1">
          <mxGeometry x="32.5" y="180" width="65" height="30" as="geometry" />
        </mxCell>
        <mxCell id="Yk8ms6qGuwUDCU6Bnd6E-95" value="" style="rounded=0;whiteSpace=wrap;html=1;fillColor=#f5f5f5;strokeColor=#666666;fontColor=#333333;" vertex="1" parent="Lu3lADUNCScUDSHZM6QB-1">
          <mxGeometry x="640" y="160" width="100" height="390" as="geometry" />
        </mxCell>
        <mxCell id="Yk8ms6qGuwUDCU6Bnd6E-96" value="Output&lt;div&gt;&lt;font style=&quot;font-size: 10px;&quot;&gt;Next time step&lt;/font&gt;&lt;/div&gt;" style="text;html=1;align=center;verticalAlign=middle;whiteSpace=wrap;rounded=0;" vertex="1" parent="Lu3lADUNCScUDSHZM6QB-1">
          <mxGeometry x="645" y="180" width="85" height="30" as="geometry" />
        </mxCell>
      </root>
    </mxGraphModel>
  </diagram>
</mxfile>
